# xmcd
#
# Track frame offsets:
#	150
#	16135
#	26985
#	41557
#	53407
#	63242
#	77892
#	91530
#	102182
#	111932
#	125860
#	138707
#
# Disc length: 1975 seconds
#
# Revision: 2
# Processed by: cddbd v1.5.2PL0 Copyright (c) Steve Scherf et al.
# Submitted via: EasyCDDAExtractor 15.3.0.1
#
DISCID=9b07b50c
DTITLE=The Nashville Session Singers - It's Country Christmas Time
DYEAR=1996
DGENRE=Christmas
TTITLE0=Blue Christmas
TTITLE1=Jingle Bells
TTITLE2=Christmas Song
TTITLE3=God Rest Ye Merry Gentlemen
TTITLE4=Winter Wonderland
TTITLE5=The Little Drummer Boy
TTITLE6=It Came Upon A Midnight Clear
TTITLE7=Silent Night
TTITLE8=O Come All Ye Faithful
TTITLE9=The Twelve Days Of Christmas
TTITLE10=Oh Holy Night
TTITLE11=We Wish You A Merry Christmas
EXTD=(C) 1996 UAV Corp.\nISBN 1-57642-537-1\n
EXTT0=
EXTT1=
EXTT2=
EXTT3=
EXTT4=
EXTT5=
EXTT6=
EXTT7=
EXTT8=
EXTT9=
EXTT10=
EXTT11=
PLAYORDER=
